<svg xmlns="http://www.w3.org/2000/svg" viewBox="0 0 32 32" fill="#1db954">
  <circle cx="16" cy="16" r="16"/>
  <path fill="#121212" d="M23 15.5c-.2 0-.4-.1-.5-.2-3.5-2.1-8.3-2.6-12.2-1.4-.2.1-.5 0-.6-.3s0-.5.3-.6c4.2-1.3 9.3-.7 13.1 1.5.2.1.3.4.2.6-.1.2-.2.4-.3.4zm0 3.3c-.2 0-.3-.1-.5-.2-2.9-1.8-7-2.3-10.3-1.3-.3.1-.5-.1-.6-.4s.1-.5.4-.6c3.7-1.1 8.2-.5 11.5 1.5.2.1.3.4.2.6-.1.1-.4.3-.7.3zm-1.1 3.2c-2.2-1.3-5.8-1.4-8.5-.8-.3.1-.6-.1-.7-.4s.1-.6.4-.7c3-.7 6.9-.5 9.6 1 .3.2.4.5.2.8-.1.3-.6.4-1 .1z"/>
</svg>
